<!-- Generated by IcoMoon.io -->
<svg version="1.1" xmlns="http://www.w3.org/2000/svg" width="1024" height="1024" viewBox="0 0 1024 1024">
<g id="icomoon-ignore">
</g>
<path d="M1022.995 301.055c-2.4-54.409-11.2-91.814-23.802-124.227-13.005-34.405-33.005-65.208-59.213-90.815-25.606-26.005-56.614-46.212-90.618-59.011-32.602-12.604-69.811-21.403-124.224-23.801-54.816-2.602-72.218-3.204-211.243-3.204-139.027 0-156.429 0.602-211.041 3.001-54.41 2.399-91.815 11.205-124.22 23.802-34.413 13.003-65.216 33.006-90.822 59.215-26.005 25.606-46.204 56.612-59.012 90.62-12.604 32.608-21.403 69.811-23.801 124.22-2.602 54.815-3.204 72.217-3.204 211.244s0.602 156.429 3.001 211.040c2.399 54.413 11.205 91.814 23.809 124.23 13.002 34.406 33.202 65.21 59.207 90.816 25.606 26.003 56.612 46.208 90.619 59.008 32.608 12.602 69.811 21.402 124.227 23.802 54.605 2.406 72.014 3.002 211.041 3.002s156.43-0.595 211.041-3.002c54.406-2.4 91.814-11.2 124.218-23.802 68.819-26.605 123.226-81.018 149.837-149.824 12.595-32.608 21.402-69.818 23.802-124.23 2.4-54.611 3.002-72.013 3.002-211.040s-0.205-156.429-2.605-211.041zM930.784 719.136c-2.208 50.010-10.605 77.018-17.606 95.021-17.21 44.608-52.614 80.013-97.222 97.222-18.003 7.002-45.203 15.398-95.021 17.594-54.010 2.406-70.208 3.002-206.835 3.002s-153.030-0.595-206.845-3.002c-50.010-2.195-77.014-10.592-95.018-17.594-22.2-8.205-42.406-21.21-58.808-38.214-17.004-16.602-30.006-36.608-38.211-58.81-7.002-18.003-15.402-45.21-17.597-95.014-2.407-54.010-3.001-70.221-3.001-206.846 0-136.628 0.594-153.030 3.001-206.837 2.195-50.010 10.595-77.015 17.597-95.019 8.205-22.207 21.207-42.406 38.414-58.816 16.596-17.004 36.6-30.006 58.808-38.203 18.003-7.002 45.212-15.402 95.018-17.605 54.010-2.399 70.217-3 206.837-3 136.828 0 153.027 0.602 206.844 3 50.010 2.204 77.018 10.604 95.021 17.605 22.195 8.197 42.406 21.199 58.81 38.203 16.998 16.605 30.003 36.609 38.208 58.816 7.002 18.004 15.398 45.204 17.606 95.019 2.4 54.010 3.002 70.209 3.002 206.837 0 136.625-0.602 152.632-3.002 206.641z"></path>
<path d="M513.899 249.043c-145.224 0-263.052 117.82-263.052 263.051s117.828 263.055 263.052 263.055c145.231 0 263.048-117.824 263.048-263.055s-117.818-263.051-263.048-263.051zM513.899 682.726c-94.214 0-170.635-76.411-170.635-170.632s76.421-170.635 170.635-170.635c94.221 0 170.632 76.413 170.632 170.635s-76.411 170.632-170.632 170.632z"></path>
<path d="M848.768 238.645c0 33.913-27.494 61.411-61.414 61.411-33.914 0-61.414-27.498-61.414-61.411 0-33.921 27.501-61.411 61.414-61.411 33.92 0 61.414 27.49 61.414 61.411z"></path>
</svg>
