<!-- Generated by IcoMoon.io -->
<svg version="1.1" xmlns="http://www.w3.org/2000/svg" width="1024" height="1024" viewBox="0 0 1024 1024">
<g id="icomoon-ignore">
</g>
<path d="M1023.75 1024v-0.045h0.256v-375.552c0-183.722-39.552-325.247-254.336-325.247-103.251 0-172.545 56.661-200.833 110.378h-2.986v-93.226h-203.649v683.647h212.054v-338.515c0-89.132 16.896-175.318 127.273-175.318 108.762 0 110.381 101.717 110.381 181.034v332.845h211.84z"></path>
<path d="M16.898 340.348h212.309v683.646h-212.309v-683.646z"></path>
<path d="M122.969-0.004c-67.882 0-122.965 55.083-122.965 122.965s55.083 124.118 122.965 124.118c67.883 0 122.966-56.235 122.966-124.118-0.043-67.882-55.126-122.965-122.966-122.965v0z"></path>
</svg>
